<?xml version="1.0" encoding="UTF-8" standalone="no"?>
<!-- Uploaded to: SVG Repo, www.svgrepo.com, Generator: SVG Repo Mixer Tools -->

<svg
   fill="#EC1D1D"
   height="800"
   width="600"
   version="1.1"
   id="Capa_1"
   viewBox="0 0 222.75 297"
   xml:space="preserve"
   sodipodi:docname="location-pin.svg"
   xmlns:inkscape="http://www.inkscape.org/namespaces/inkscape"
   xmlns:sodipodi="http://sodipodi.sourceforge.net/DTD/sodipodi-0.dtd"
   xmlns="http://www.w3.org/2000/svg"
   xmlns:svg="http://www.w3.org/2000/svg"><defs
   id="defs2" /><sodipodi:namedview
   id="namedview2"
   pagecolor="#ffffff"
   bordercolor="#EC1D1D"
   borderopacity="0.25"
   inkscape:showpageshadow="2"
   inkscape:pageopacity="0.0"
   inkscape:pagecheckerboard="0"
   inkscape:deskcolor="#d1d1d1" />&#10;<g
   id="g2">&#10;	&#10;	&#10;<g
   id="g3"
   transform="matrix(1.0056161,0,0,0.99999663,-37.958991,0)"><path
     d="M 148.5,0 C 87.43,0 37.747,49.703 37.747,110.797 c 0,91.026 99.729,179.905 103.976,183.645 1.936,1.705 4.356,2.559 6.777,2.559 2.421,0 4.841,-0.853 6.778,-2.559 4.245,-3.739 103.975,-92.618 103.975,-183.645 C 259.253,49.703 209.57,0 148.5,0 Z m 0,272.689 C 126.451,251.323 58.257,179.66 58.257,110.797 58.257,61.013 98.74,20.51 148.5,20.51 c 49.76,0 90.243,40.503 90.243,90.287 0,68.862 -68.194,140.525 -90.243,161.892 z"
     id="path1" /><path
     d="m 148.5,59.183 c -28.273,0 -51.274,23.154 -51.274,51.614 0,28.461 23.001,51.614 51.274,51.614 28.273,0 51.274,-23.153 51.274,-51.614 0,-28.46 -23.001,-51.614 -51.274,-51.614 z m 0,82.718 c -16.964,0 -30.765,-13.953 -30.765,-31.104 0,-17.15 13.801,-31.104 30.765,-31.104 16.964,0 30.765,13.953 30.765,31.104 0,17.151 -13.801,31.104 -30.765,31.104 z"
     id="path2" /><path
     style="fill:#EC1D1D;stroke-width:0.848537"
     d="m 400.41015,45.995029 c -67.60918,-0.874532 -134.6058,27.940734 -181.38376,76.579791 -44.79408,45.88075 -71.40546,109.18762 -71.50232,173.42874 -0.58768,69.19339 23.15214,136.15162 54.75124,196.84512 47.77823,90.36011 112.98352,170.43599 184.98345,242.55009 4.36581,5.2769 11.29208,11.74348 18.35035,7.00767 47.88638,-47.05582 92.47246,-97.84299 131.80525,-152.3674 46.21078,-64.77075 86.29906,-135.69544 105.33273,-213.51885 7.75912,-31.5092 11.20074,-64.10845 8.875,-96.52238 C 649.23097,238.42877 634.99381,197.81763 612.84444,162.69873 569.97669,95.0123 493.40006,49.675909 413.18784,46.215406 408.93123,46.041631 404.67018,45.976204 400.41015,45.995029 Z M 400.1483,169.14563 c 40.49798,-0.40134 79.99623,20.35015 103.5921,53.09373 18.23504,24.68421 26.98996,56.09182 24.08459,86.66135 -2.91861,51.73724 -41.24164,98.87903 -91.01427,113.49311 -17.2294,5.25107 -35.64524,6.04834 -53.48733,4.42043 -43.90091,-5.80211 -83.77958,-35.61226 -101.02399,-76.51254 -17.95515,-40.56815 -13.07923,-90.20911 12.71596,-126.36143 23.42091,-34.13057 63.75549,-55.06306 105.13294,-54.79465 z"
     id="path3"
     transform="scale(0.37125)" /></g></g>&#10;</svg>
